<?xml version="1.0" standalone="no"?>
<!DOCTYPE svg PUBLIC "-//W3C//DTD SVG 20010904//EN"
 "http://www.w3.org/TR/2001/REC-SVG-20010904/DTD/svg10.dtd">
<svg version="1.0" xmlns="http://www.w3.org/2000/svg"
 width="495.000000pt" height="495.000000pt" viewBox="0 0 495.000000 495.000000"
 preserveAspectRatio="xMidYMid meet">
<metadata>
Created by potrace 1.14, written by Peter Selinger 2001-2017
</metadata>
<g transform="translate(0.000000,495.000000) scale(0.100000,-0.100000)"
fill="#000000" stroke="none">
<path d="M2255 4925 c-482 -78 -840 -305 -1099 -699 -76 -115 -166 -303 -205
-424 -56 -180 -66 -248 -66 -462 1 -218 16 -316 80 -506 65 -195 127 -299 341
-570 203 -256 246 -317 285 -399 42 -89 56 -156 65 -320 8 -160 18 -195 69
-249 l44 -46 -48 -48 c-26 -26 -51 -60 -55 -75 -6 -26 9 -71 35 -108 10 -13 7
-24 -15 -55 -32 -47 -32 -75 -2 -134 l24 -44 -23 -31 c-41 -55 -39 -101 5
-145 16 -16 18 -25 10 -40 -5 -10 -10 -37 -10 -59 0 -52 42 -102 120 -141 40
-20 81 -56 145 -126 170 -185 239 -220 469 -236 269 -18 338 7 533 194 84 80
150 134 190 156 105 55 138 117 109 198 -14 41 -14 42 15 70 37 36 37 70 -1
114 -16 19 -29 38 -30 43 0 4 14 26 30 49 37 51 37 72 1 127 l-30 44 25 36
c36 54 31 81 -25 146 l-50 57 34 29 c53 47 67 95 75 259 9 163 26 243 76 345
34 70 161 247 305 425 341 422 455 834 369 1337 -61 357 -229 653 -510 901
-221 196 -451 314 -730 377 -105 24 -433 29 -555 10z m461 -201 c44 -21 74
-70 74 -123 0 -138 -152 -197 -250 -96 l-34 35 -162 0 c-140 0 -164 -2 -182
-17 -11 -10 -167 -196 -347 -413 -180 -217 -335 -401 -344 -408 -11 -9 -57
-12 -176 -10 l-160 3 0 30 0 30 147 5 c81 3 151 10 156 15 5 6 163 196 351
423 l342 412 180 0 179 0 30 49 c47 76 121 100 196 65z m-826 -19 c56 -29 77
-109 43 -166 -20 -33 -68 -59 -110 -59 -24 0 -59 -30 -211 -183 -100 -101
-182 -190 -182 -198 0 -8 4 -29 9 -46 20 -70 -25 -140 -96 -150 -76 -10 -133
40 -133 115 0 72 50 122 122 122 29 0 48 15 154 123 212 216 247 256 239 275
-47 119 56 223 165 167z m1150 -103 c46 -23 80 -75 80 -122 0 -20 -11 -58 -25
-84 -27 -51 -32 -95 -14 -128 6 -12 42 -62 79 -112 37 -50 72 -101 79 -114 9
-17 10 -158 1 -620 -5 -328 -10 -628 -10 -666 l0 -69 -128 -131 c-71 -72 -140
-146 -155 -164 l-27 -34 0 -476 c0 -262 -4 -483 -9 -490 -5 -8 -17 -12 -27
-10 -18 3 -19 23 -22 512 l-2 509 149 151 c131 133 149 156 154 191 4 22 9
317 13 655 l6 615 -113 154 c-80 110 -124 161 -155 179 -52 32 -77 73 -77 127
0 107 108 175 203 127z m363 -49 c63 -32 85 -119 47 -193 -19 -38 -20 -48 -9
-350 6 -171 9 -313 7 -314 -1 -2 -15 -6 -29 -9 -34 -9 -39 7 -39 133 0 52 -3
173 -7 268 -7 188 -11 202 -61 202 -71 0 -140 91 -126 166 8 46 56 101 98 113
35 11 78 5 119 -16z m-814 -295 c5 -29 11 -62 13 -72 2 -12 23 -28 60 -43 l56
-25 62 42 62 42 75 -74 74 -74 -42 -59 -41 -59 19 -56 c22 -60 14 -55 151 -85
21 -5 22 -10 22 -109 l0 -105 -73 -11 -73 -12 -26 -58 -25 -57 45 -63 45 -62
-74 -74 -75 -75 -63 44 -63 44 -52 -21 c-28 -11 -54 -25 -57 -29 -3 -5 -12
-40 -18 -78 l-13 -69 -103 0 -104 0 -11 58 c-6 31 -13 66 -15 77 -3 13 -23 27
-60 41 l-55 21 -62 -44 -62 -43 -74 74 -74 74 41 60 c22 34 41 64 41 69 0 4
-9 31 -21 59 l-21 50 -74 13 -74 12 0 104 c0 100 1 105 23 110 134 29 128 26
149 83 l20 53 -41 62 -41 62 74 74 74 73 61 -42 62 -41 54 22 c30 12 57 30 59
38 3 9 10 42 16 74 l11 57 104 0 104 0 10 -52z m1208 -363 c51 -34 71 -112 43
-165 -17 -32 -70 -60 -113 -60 -21 0 -52 -6 -70 -13 -31 -14 -173 -161 -195
-204 -17 -32 -17 -679 0 -689 18 -12 226 212 238 256 13 46 13 145 0 192 -6
21 -27 59 -47 85 -88 115 -36 248 97 248 39 0 63 -6 82 -20 71 -53 78 -152 16
-224 -42 -50 -55 -90 -63 -201 -11 -158 9 -128 -263 -404 -136 -138 -289 -294
-339 -347 l-93 -96 -1 -324 c-1 -178 -4 -373 -8 -434 -6 -109 -6 -110 -31
-110 l-25 0 -3 451 -2 452 185 192 185 192 -7 401 -6 402 102 110 c110 117
131 152 131 213 0 93 107 149 187 97z m-2084 -299 c117 -48 79 -226 -48 -226
-32 0 -51 7 -74 26 l-31 26 -227 -4 c-215 -3 -228 -2 -231 16 -2 10 0 22 5 27
6 6 99 14 207 19 108 5 204 13 212 18 8 4 23 23 32 42 19 34 72 70 105 70 10
0 32 -6 50 -14z m-280 -315 c14 -5 45 -30 70 -55 31 -32 53 -46 72 -46 19 0
41 14 72 46 68 69 128 82 191 44 123 -75 76 -260 -67 -260 -54 0 -77 12 -122
63 -31 34 -43 41 -74 41 -31 0 -43 -7 -74 -41 -45 -51 -68 -63 -123 -63 -48 0
-79 18 -125 70 -29 33 -34 34 -114 40 -81 5 -84 6 -84 30 0 24 2 25 88 30 l87
5 38 42 c20 23 46 46 57 52 25 13 76 14 108 2z m1535 -315 c32 -30 37 -40 37
-78 0 -55 -23 -92 -75 -118 -23 -12 -71 -58 -120 -116 l-80 -95 0 -573 c0
-483 -2 -575 -14 -592 -12 -15 -18 -17 -33 -8 -17 11 -18 44 -21 585 -1 316 0
584 3 596 3 11 32 54 65 95 71 85 79 108 56 154 -44 93 8 183 107 184 29 0 46
-8 75 -34z m-810 10 c59 -32 77 -107 42 -173 -11 -21 -20 -45 -20 -55 0 -9 32
-55 70 -102 l70 -85 -2 -588 -3 -588 -25 0 -25 0 -5 575 -5 576 -89 107 c-49
59 -95 107 -103 107 -8 0 -30 15 -49 34 -30 30 -34 40 -34 86 0 46 4 56 34 86
28 28 41 34 78 34 23 -1 53 -6 66 -14z m-541 -43 c22 -15 53 -70 53 -96 0 -32
18 -55 221 -289 l208 -240 5 -61 c9 -103 27 -848 21 -858 -11 -16 -53 -10 -59
9 -2 9 -8 157 -12 327 -7 356 -15 477 -29 482 -5 1 -32 -14 -60 -35 l-50 -38
-5 -329 -5 -330 -25 0 -25 0 -5 311 c-4 254 -8 314 -20 331 -8 12 -62 74 -120
137 -84 92 -113 117 -145 126 -67 19 -105 61 -105 118 0 126 170 170 224 58
20 -41 20 -73 1 -106 -8 -14 -14 -32 -15 -40 0 -15 172 -212 191 -218 15 -6
121 71 129 93 4 11 5 27 1 36 -8 22 -319 381 -340 393 -9 6 -46 9 -83 8 -61
-3 -70 0 -99 26 -25 23 -33 38 -36 78 -5 43 -2 54 22 82 42 50 107 60 162 25z
m960 -13 c41 -25 63 -68 63 -122 0 -47 -27 -100 -59 -118 -46 -24 -46 -22 -51
-675 l-5 -620 -25 0 -25 0 -5 620 c-5 653 -5 651 -51 675 -32 18 -59 71 -59
118 0 85 56 142 140 142 27 0 58 -8 77 -20z m573 -1787 c0 -27 -12 -41 -45
-53 -37 -14 -351 -27 -855 -35 -433 -7 -442 -6 -448 48 -7 60 -40 57 684 57
626 0 664 -1 664 -17z m-40 -193 c30 -6 56 -12 58 -15 11 -10 -29 -53 -55 -59
-15 -4 -307 -9 -648 -12 -654 -5 -652 -6 -679 39 -9 15 -7 22 13 38 22 18 45
19 641 19 372 0 638 -4 670 -10z m30 -195 c6 -8 10 -22 8 -32 -7 -40 -57 -44
-694 -55 -572 -11 -613 -11 -638 5 -30 20 -34 48 -9 68 27 23 110 26 729 27
506 2 593 0 604 -13z m8 -212 c2 -16 -5 -26 -30 -39 -46 -24 -367 -35 -876
-32 l-404 3 -24 28 c-29 34 -22 55 19 60 18 2 320 3 672 3 l640 -1 3 -22z
m-823 -218 c98 -25 195 -39 345 -50 96 -8 109 -15 91 -49 -30 -56 -185 -91
-339 -76 -130 12 -164 24 -225 80 -30 27 -75 59 -101 69 -26 12 -46 27 -46 36
0 25 154 20 275 -10z"/>
<path d="M2607 4648 c-46 -36 -16 -118 43 -118 31 0 70 39 70 71 0 46 -74 76
-113 47z"/>
<path d="M1786 4638 c-9 -12 -16 -30 -16 -40 0 -24 35 -58 60 -58 27 0 60 35
60 63 0 53 -75 77 -104 35z"/>
<path d="M1292 4064 c-43 -30 -18 -104 36 -104 48 0 71 70 34 103 -23 21 -41
21 -70 1z"/>
<path d="M2944 4538 c-72 -34 -27 -152 50 -132 56 14 73 78 31 119 -26 27 -47
30 -81 13z"/>
<path d="M3282 4477 c-12 -13 -22 -33 -22 -44 0 -32 33 -65 64 -65 60 0 92 77
46 114 -30 24 -62 23 -88 -5z"/>
<path d="M2385 3987 c-68 -23 -101 -44 -148 -97 -83 -92 -102 -223 -48 -335
57 -118 153 -180 281 -179 99 0 163 28 229 100 177 193 51 507 -209 520 -37 2
-82 -2 -105 -9z m185 -119 c99 -50 140 -180 88 -278 -36 -67 -94 -103 -171
-108 -51 -3 -70 1 -107 20 -149 80 -146 292 5 371 45 24 132 21 185 -5z"/>
<path d="M3687 3832 c-23 -25 -21 -58 3 -82 24 -24 48 -25 78 -4 26 18 30 65
6 88 -21 22 -67 20 -87 -2z"/>
<path d="M3706 3459 c-30 -24 -34 -63 -10 -97 11 -16 25 -22 54 -22 44 0 70
26 70 71 0 30 -40 69 -70 69 -10 0 -29 -9 -44 -21z"/>
<path d="M1625 3520 c-23 -25 -13 -67 20 -82 52 -23 100 46 59 86 -21 22 -57
20 -79 -4z"/>
<path d="M1359 3208 c-55 -18 -57 -96 -4 -120 54 -25 114 38 85 89 -18 32 -47
43 -81 31z"/>
<path d="M1739 3206 c-35 -17 -46 -58 -26 -90 37 -56 117 -37 117 28 0 51 -48
84 -91 62z"/>
<path d="M2850 2920 c-24 -24 -25 -38 -4 -68 17 -24 62 -30 82 -10 20 20 14
65 -10 82 -30 21 -44 20 -68 -4z"/>
<path d="M2060 2910 c-11 -11 -20 -29 -20 -40 0 -22 33 -60 53 -60 27 0 57 31
57 60 0 18 -8 34 -22 44 -30 21 -44 20 -68 -4z"/>
<path d="M1506 2874 c-21 -20 -20 -58 0 -79 25 -24 75 -16 93 16 13 24 13 29
-2 53 -20 30 -66 35 -91 10z"/>
<path d="M1537 2542 c-23 -25 -21 -58 3 -82 23 -23 30 -24 65 -8 33 15 42 51
21 83 -20 30 -65 34 -89 7z"/>
<path d="M2450 2850 c-11 -11 -20 -33 -20 -50 0 -17 9 -39 20 -50 43 -43 120
-11 120 48 0 60 -78 94 -120 52z"/>
</g>
</svg>
